<svg width="19" height="19" viewBox="0 0 19 19" fill="none" xmlns="http://www.w3.org/2000/svg">
<g clip-path="url(#clip0_4034_825)">
<path d="M14.8203 0.96875C17.0768 0.96875 18.9062 2.79818 18.9062 5.05469V14.8203C18.9062 17.0768 17.0768 18.9062 14.8203 18.9062H5.05469C2.79818 18.9062 0.96875 17.0768 0.96875 14.8203V5.05469C0.96875 2.79818 2.79818 0.96875 5.05469 0.96875H14.8203Z" fill="#DFEDF5"/>
<path d="M14.8203 0.96875C17.0768 0.96875 18.9062 2.79818 18.9062 5.05469V14.8203C18.9062 17.0768 17.0768 18.9062 14.8203 18.9062H5.05469C2.79818 18.9062 0.96875 17.0768 0.96875 14.8203V5.05469C0.96875 2.79818 2.79818 0.96875 5.05469 0.96875H14.8203Z" fill="white"/>
<path d="M6 7.34887H8.10075V16.3874H6V7.34887Z" fill="black"/>
<path d="M11.4165 4.38745C13.2208 4.38745 14.6886 5.94782 14.6886 7.86573C14.6886 9.70985 13.3035 11.2485 11.5824 11.3405L15 16.3875H12.504L9.09431 11.3542C9.07838 11.3307 9.06991 11.3029 9.06991 11.2737V9.55816C9.06991 9.48222 9.12798 9.42054 9.19933 9.42054H11.209C11.6035 9.42054 11.973 9.25528 12.2496 8.95542C12.5261 8.65564 12.6743 8.2592 12.6668 7.83915C12.6519 7.00025 11.9755 6.31769 11.1589 6.31769H6V4.38745H11.4165Z" fill="black"/>
</g>
<defs>
<clipPath id="clip0_4034_825">
<rect width="17.9375" height="17.9375" fill="white" transform="translate(0.96875 0.96875)"/>
</clipPath>
</defs>
</svg>
